<svg width="307" height="283" xmlns="http://www.w3.org/2000/svg" xmlns:xlink="http://www.w3.org/1999/xlink" overflow="hidden"><g transform="translate(-367 -202)"><g><g><path d="M229.038 190.121C228.717 190.087 228.469 189.935 228.067 189.242 227.587 188.585 227.333 188.349 227.08 188.113 227.08 188.113 227.158 188.114 226.998 187.953 226.583 187.567 226.329 187.34 226.075 187.114 226.075 187.114 226.157 187.113 225.998 186.955 225.588 186.569 225.337 186.34 225.086 186.111 225.086 186.111 225.159 186.111 224.998 185.95 224.585 185.563 224.332 185.337 224.08 185.111 224.08 185.111 224.157 185.111 223.997 184.951 223.584 184.564 223.331 184.338 223.078 184.113 223.078 184.113 223.155 184.112 222.994 183.951 222.579 183.564 222.325 183.337 222.071 183.111 222.071 183.111 222.154 183.11 221.995 182.953 221.586 182.567 221.336 182.338 221.085 182.109 221.085 182.109 221.159 182.11 220.998 181.949 220.585 181.561 220.334 181.334 220.082 181.107 220.082 181.107 220.153 181.105 219.992 180.944 219.577 180.558 219.322 180.334 219.068 180.109 219.068 180.109 219.153 180.108 218.991 179.951 218.575 179.565 218.32 179.336 218.066 179.108 218.066 179.108 218.154 179.106 217.991 178.952 217.575 178.567 217.323 178.336 217.071 178.105 217.071 178.105 217.156 178.104 216.987 177.95 216.556 177.57 216.296 177.344 216.035 177.118 201.568 162.414 187.088 147.723 172.652 132.989 170.672 130.968 168.916 128.728 166.656 126.129 161.481 131.224 156.883 135.689 152.353 140.222 119.584 173.006 86.8487 205.824 54.0517 238.58 48.6141 244.011 42.9174 248.973 34.9577 250.735 25.3394 252.865 15.7138 247.063 15.3228 237.44 15.045 230.601 18.623 224.555 22.7231 219.082 32.587 205.915 42.4523 192.749 52.3147 179.581 65.4101 162.096 78.5073 144.612 91.5961 127.123 102.134 113.042 112.513 98.8396 123.232 84.8987 134.409 70.3633 149.094 62.0666 167.71 62.2112 178.811 62.2975 189.075 66.4405 196.535 74.3469 206.731 85.1529 215.839 97.0296 224.944 108.81 237.896 125.569 250.465 142.626 263.119 159.614 276.834 178.029 290.532 196.459 304.071 215.003 307.414 219.581 310.564 224.416 312.974 229.524 315.158 234.154 315.261 239.434 311.288 243.372 306.587 248.031 300.658 251.535 293.985 249.618 288.817 248.133 283.453 245.379 279.583 241.706 270.004 232.613 261.244 222.658 252.12 213.082 251.01 211.917 249.687 210.955 248.15 209.385 247.585 208.622 247.333 208.372 247.081 208.122 247.081 208.122 247.175 208.126 247.01 207.972 246.589 207.588 246.334 207.358 246.078 207.128 246.078 207.128 246.169 207.127 246.007 206.972 245.589 206.587 245.333 206.357 245.077 206.127 245.077 206.127 245.169 206.125 245.006 205.971 244.588 205.586 244.333 205.356 244.078 205.125 244.078 205.125 244.17 205.124 244.007 204.97 243.589 204.586 243.334 204.356 243.08 204.126 243.08 204.126 243.168 204.127 243.006 203.97 242.589 203.584 242.332 203.356 242.076 203.128 242.076 203.128 242.163 203.125 242.002 202.969 241.585 202.583 241.33 202.353 241.075 202.124 241.075 202.124 241.167 202.123 241.004 201.969 240.587 201.584 240.332 201.353 240.077 201.122 240.077 201.122 240.167 201.122 240.004 200.967 239.587 200.582 239.332 200.352 239.077 200.122 239.077 200.122 239.166 200.122 239.003 199.966 238.585 199.58 238.329 199.351 238.073 199.121 238.073 199.121 238.165 199.12 238.003 198.966 237.586 198.582 237.332 198.351 237.078 198.121 237.078 198.121 237.165 198.121 237.004 197.964 236.589 197.578 236.335 197.349 236.081 197.12 236.081 197.12 236.163 197.12 236.002 196.961 235.586 196.575 235.331 196.348 235.076 196.121 235.076 196.121 235.162 196.12 235.001 195.963 234.585 195.577 234.33 195.349 234.075 195.12 234.075 195.12 234.161 195.119 234 194.962 233.585 194.576 233.331 194.347 233.076 194.119 233.076 194.119 233.161 194.118 233 193.961 232.583 193.575 232.328 193.346 232.073 193.117 232.073 193.117 232.162 193.117 231.999 192.961 231.582 192.576 231.327 192.346 231.072 192.117 231.072 192.117 231.16 192.117 230.999 191.961 230.584 191.575 230.33 191.346 230.076 191.116 230.076 191.116 230.161 191.115 229.994 190.958 229.564 190.574 229.301 190.348 229.038 190.121Z" fill="#229799" transform="matrix(1 0 0 1.00076 355.193 177.471)"/><path d="M233.166 194.377C233.331 194.347 233.585 194.576 234 195.005 233.86 195.016 233.558 194.826 233.166 194.377Z" fill="#3A8F91" transform="matrix(1 0 0 1.00076 355.193 177.471)"/><path d="M247.169 208.388C247.333 208.372 247.585 208.622 247.996 209.087 247.856 209.087 247.557 208.871 247.169 208.388Z" fill="#3A8F91" transform="matrix(1 0 0 1.00076 355.193 177.471)"/><path d="M234.161 195.383C234.33 195.349 234.585 195.577 235.001 196.006 234.858 196.019 234.552 195.832 234.161 195.383Z" fill="#3A8F91" transform="matrix(1 0 0 1.00076 355.193 177.471)"/><path d="M235.161 196.383C235.331 196.348 235.586 196.575 236.002 197.002 235.858 197.017 235.553 196.831 235.161 196.383Z" fill="#3A8F91" transform="matrix(1 0 0 1.00076 355.193 177.471)"/><path d="M236.172 197.379C236.335 197.349 236.589 197.578 237.004 198.008 236.864 198.018 236.563 197.827 236.172 197.379Z" fill="#3A8F91" transform="matrix(1 0 0 1.00076 355.193 177.471)"/><path d="M237.163 198.384C237.332 198.351 237.586 198.582 238.003 199.012 237.86 199.024 237.554 198.836 237.163 198.384Z" fill="#3A8F91" transform="matrix(1 0 0 1.00076 355.193 177.471)"/><path d="M238.163 199.382C238.329 199.351 238.585 199.58 239.003 200.01 238.862 200.022 238.557 199.833 238.163 199.382Z" fill="#3A8F91" transform="matrix(1 0 0 1.00076 355.193 177.471)"/><path d="M239.165 200.383C239.332 200.352 239.587 200.582 240.004 201.012 239.863 201.023 239.558 200.834 239.165 200.383Z" fill="#3A8F91" transform="matrix(1 0 0 1.00076 355.193 177.471)"/><path d="M240.166 201.384C240.332 201.353 240.587 201.584 241.005 202.015 240.864 202.025 240.56 201.835 240.166 201.384Z" fill="#3A8F91" transform="matrix(1 0 0 1.00076 355.193 177.471)"/><path d="M241.165 202.384C241.33 202.353 241.585 202.583 242.003 203.012 241.862 203.023 241.559 202.833 241.165 202.384Z" fill="#3A8F91" transform="matrix(1 0 0 1.00076 355.193 177.471)"/><path d="M242.161 203.391C242.332 203.356 242.589 203.584 243.005 204.014 242.86 204.029 242.553 203.842 242.161 203.391Z" fill="#3A8F91" transform="matrix(1 0 0 1.00076 355.193 177.471)"/><path d="M243.169 204.386C243.334 204.356 243.589 204.586 244.007 205.016 243.867 205.026 243.563 204.836 243.169 204.386Z" fill="#3A8F91" transform="matrix(1 0 0 1.00076 355.193 177.471)"/><path d="M244.169 205.385C244.333 205.356 244.588 205.586 245.007 206.017 244.867 206.027 244.563 205.837 244.169 205.385Z" fill="#3A8F91" transform="matrix(1 0 0 1.00076 355.193 177.471)"/><path d="M245.164 206.39C245.333 206.357 245.589 206.587 246.007 207.018 245.864 207.03 245.558 206.842 245.164 206.39Z" fill="#3A8F91" transform="matrix(1 0 0 1.00076 355.193 177.471)"/><path d="M246.166 207.39C246.334 207.358 246.589 207.588 247.008 208.019 246.865 208.031 246.56 207.841 246.166 207.39Z" fill="#3A8F91" transform="matrix(1 0 0 1.00076 355.193 177.471)"/><path d="M232.164 193.376C232.328 193.346 232.583 193.575 233 194.003 232.86 194.014 232.557 193.825 232.164 193.376Z" fill="#3A8F91" transform="matrix(1 0 0 1.00076 355.193 177.471)"/><path d="M231.161 192.378C231.327 192.346 231.582 192.576 232 193.005 231.858 193.016 231.554 192.827 231.161 192.378Z" fill="#3A8F91" transform="matrix(1 0 0 1.00076 355.193 177.471)"/><path d="M230.163 191.378C230.33 191.346 230.584 191.575 230.999 192.005 230.857 192.017 230.553 191.828 230.163 191.378Z" fill="#3A8F91" transform="matrix(1 0 0 1.00076 355.193 177.471)"/><path d="M229.14 190.379C229.301 190.348 229.564 190.574 229.995 191 229.856 191.012 229.548 190.825 229.14 190.379Z" fill="#3A8F91" transform="matrix(1 0 0 1.00076 355.193 177.471)"/><path d="M227.166 188.376C227.333 188.349 227.587 188.585 227.997 189.029 227.853 189.037 227.552 188.839 227.166 188.376Z" fill="#3A8F91" transform="matrix(1 0 0 1.00076 355.193 177.471)"/><path d="M226.161 187.375C226.329 187.34 226.583 187.567 226.997 187.992 226.854 188.006 226.551 187.821 226.161 187.375Z" fill="#3A8F91" transform="matrix(1 0 0 1.00076 355.193 177.471)"/><path d="M225.178 186.366C225.337 186.34 225.588 186.569 225.998 186.997 225.862 187.004 225.566 186.812 225.178 186.366Z" fill="#3A8F91" transform="matrix(1 0 0 1.00076 355.193 177.471)"/><path d="M224.174 185.365C224.332 185.337 224.585 185.563 224.998 185.986 224.862 185.995 224.565 185.807 224.174 185.365Z" fill="#3A8F91" transform="matrix(1 0 0 1.00076 355.193 177.471)"/><path d="M223.166 184.37C223.331 184.338 223.584 184.564 223.997 184.989 223.856 185.001 223.555 184.815 223.166 184.37Z" fill="#3A8F91" transform="matrix(1 0 0 1.00076 355.193 177.471)"/><path d="M222.161 183.368C222.325 183.337 222.579 183.564 222.995 183.99 222.854 184.001 222.553 183.814 222.161 183.368Z" fill="#3A8F91" transform="matrix(1 0 0 1.00076 355.193 177.471)"/><path d="M221.167 182.37C221.336 182.338 221.586 182.567 221.996 182.995 221.853 183.006 221.551 182.819 221.167 182.37Z" fill="#3A8F91" transform="matrix(1 0 0 1.00076 355.193 177.471)"/><path d="M220.182 181.356C220.334 181.334 220.585 181.561 220.997 181.986 220.866 181.991 220.573 181.798 220.182 181.356Z" fill="#3A8F91" transform="matrix(1 0 0 1.00076 355.193 177.471)"/><path d="M219.155 180.369C219.322 180.334 219.577 180.558 219.993 180.979 219.851 180.994 219.547 180.811 219.155 180.369Z" fill="#3A8F91" transform="matrix(1 0 0 1.00076 355.193 177.471)"/><path d="M218.154 179.368C218.32 179.336 218.575 179.565 218.992 179.994 218.85 180.005 218.546 179.817 218.154 179.368Z" fill="#3A8F91" transform="matrix(1 0 0 1.00076 355.193 177.471)"/><path d="M217.166 178.36C217.323 178.336 217.575 178.567 217.992 178.996 217.857 179.001 217.559 178.808 217.166 178.36Z" fill="#3A8F91" transform="matrix(1 0 0 1.00076 355.193 177.471)"/><path d="M216.144 177.368C216.296 177.344 216.556 177.57 216.987 177.993 216.856 177.999 216.555 177.809 216.144 177.368Z" fill="#3A8F91" transform="matrix(1 0 0 1.00076 355.193 177.471)"/></g></g></g></svg>