<svg width="179" height="24" xmlns="http://www.w3.org/2000/svg" xmlns:xlink="http://www.w3.org/1999/xlink" overflow="hidden"><g transform="translate(-550 -383)"><g><g><path d="M22.7908 18.9183C22.7589 18.9149 22.7341 18.8997 22.6941 18.8309 22.6463 18.7654 22.6211 18.742 22.596 18.7185 22.596 18.7185 22.6037 18.7186 22.5877 18.7026 22.5465 18.6641 22.5212 18.6415 22.4959 18.619 22.4959 18.619 22.5041 18.6189 22.4883 18.6032 22.4475 18.5648 22.4225 18.542 22.3975 18.5193 22.3975 18.5193 22.4047 18.5193 22.3887 18.5032 22.3476 18.4648 22.3225 18.4423 22.2975 18.4197 22.2975 18.4197 22.305 18.4197 22.2891 18.4037 22.2481 18.3653 22.2228 18.3428 22.1976 18.3204 22.1976 18.3204 22.2054 18.3203 22.1894 18.3043 22.148 18.2658 22.1228 18.2433 22.0975 18.2207 22.0975 18.2207 22.1058 18.2206 22.0899 18.205 22.0492 18.1666 22.0244 18.1437 21.9994 18.121 21.9994 18.121 22.0068 18.1211 21.9907 18.1051 21.9497 18.0665 21.9246 18.0439 21.8996 18.0213 21.8996 18.0213 21.9067 18.0211 21.8906 18.0051 21.8493 17.9667 21.824 17.9444 21.7986 17.922 21.7986 17.922 21.8071 17.9219 21.791 17.9064 21.7496 17.8679 21.7242 17.8451 21.6989 17.8224 21.6989 17.8224 21.7077 17.8222 21.6915 17.8069 21.6501 17.7686 21.625 17.7456 21.6 17.7227 21.6 17.7227 21.6084 17.7225 21.5915 17.7072 21.5488 17.6694 21.5229 17.6469 21.4968 17.6244 20.0574 16.1612 18.6164 14.6995 17.18 13.2332 16.983 13.0321 16.8083 12.8092 16.5834 12.5506 16.0684 13.0577 15.6109 13.502 15.1601 13.9529 11.8994 17.2152 8.64201 20.4808 5.37849 23.7403 4.83742 24.2807 4.27056 24.7744 3.47851 24.9498 2.52144 25.1617 1.56362 24.5844 1.52472 23.6269 1.49707 22.9463 1.85311 22.3447 2.2611 21.8001 3.24262 20.4899 4.22428 19.1798 5.20565 17.8695 6.50873 16.1296 7.81198 14.3899 9.1144 12.6496 10.163 11.2484 11.1958 9.83519 12.2624 8.44797 13.3745 7.0016 14.8358 6.17602 16.6882 6.19041 17.7929 6.199 18.8143 6.61125 19.5566 7.398 20.5711 8.47326 21.4774 9.65507 22.3834 10.8273 23.6722 12.4949 24.9229 14.1922 26.182 15.8827 27.5468 17.7151 28.9098 19.549 30.2571 21.3943 30.5897 21.8497 30.9031 22.3308 31.1429 22.8391 31.3603 23.2998 31.3705 23.8251 30.9751 24.2171 30.5075 24.6807 29.9175 25.0294 29.2535 24.8386 28.7392 24.6908 28.2054 24.4167 27.8204 24.0513 26.8671 23.1465 25.9955 22.1559 25.0876 21.2031 24.9771 21.0872 24.8455 20.9914 24.6925 20.8352 24.6363 20.7592 24.6112 20.7344 24.5862 20.7094 24.5862 20.7094 24.5955 20.7098 24.5791 20.6946 24.5372 20.6564 24.5118 20.6334 24.4863 20.6105 24.4863 20.6105 24.4955 20.6105 24.4793 20.595 24.4377 20.5567 24.4122 20.5339 24.3868 20.511 24.3868 20.511 24.3959 20.5108 24.3797 20.4955 24.3381 20.4572 24.3128 20.4343 24.2873 20.4112 24.2873 20.4112 24.2965 20.4112 24.2802 20.3958 24.2387 20.3576 24.2133 20.3347 24.188 20.3118 24.188 20.3118 24.1967 20.312 24.1807 20.2963 24.1391 20.2579 24.1137 20.2352 24.0882 20.2126 24.0882 20.2126 24.0968 20.2122 24.0807 20.1967 24.0393 20.1583 24.014 20.1354 23.9885 20.1126 23.9885 20.1126 23.9977 20.1125 23.9815 20.0972 23.94 20.0589 23.9146 20.0359 23.8892 20.013 23.8892 20.013 23.8981 20.013 23.8819 19.9975 23.8404 19.9592 23.8151 19.9364 23.7896 19.9134 23.7896 19.9134 23.7985 19.9134 23.7823 19.8979 23.7407 19.8595 23.7152 19.8367 23.6898 19.8138 23.6898 19.8138 23.6989 19.8138 23.6829 19.7984 23.6413 19.7602 23.6161 19.7373 23.5908 19.7144 23.5908 19.7144 23.5995 19.7144 23.5834 19.6987 23.5422 19.6603 23.5169 19.6375 23.4915 19.6147 23.4915 19.6147 23.4998 19.6147 23.4837 19.5989 23.4424 19.5605 23.4169 19.5379 23.3916 19.5153 23.3916 19.5153 23.4001 19.5152 23.3841 19.4996 23.3427 19.4612 23.3173 19.4385 23.2919 19.4157 23.2919 19.4157 23.3005 19.4156 23.2845 19.3999 23.2432 19.3616 23.2179 19.3388 23.1926 19.3161 23.1926 19.3161 23.201 19.316 23.185 19.3003 23.1435 19.2619 23.1181 19.2392 23.0928 19.2165 23.0928 19.2165 23.1016 19.2164 23.0854 19.2009 23.0439 19.1626 23.0186 19.1397 22.9931 19.1169 22.9931 19.1169 23.002 19.1168 22.9859 19.1013 22.9446 19.0629 22.9193 19.0401 22.8941 19.0173 22.8941 19.0173 22.9025 19.0172 22.8858 19.0015 22.8431 18.9634 22.817 18.9409 22.7908 18.9183Z" fill="#229799" transform="matrix(1.01184 0 0 1 550 378.981)"/><path d="M23.2016 19.3418C23.2179 19.3388 23.2432 19.3616 23.2846 19.4043 23.2706 19.4053 23.2406 19.3865 23.2016 19.3418Z" fill="#3A8F91" transform="matrix(1.01184 0 0 1 550 378.981)"/><path d="M24.5949 20.736C24.6112 20.7344 24.6363 20.7592 24.6773 20.8056 24.6633 20.8055 24.6335 20.784 24.5949 20.736Z" fill="#3A8F91" transform="matrix(1.01184 0 0 1 550 378.981)"/><path d="M23.3005 19.4419C23.3173 19.4385 23.3427 19.4612 23.3841 19.5039 23.3699 19.5052 23.3394 19.4866 23.3005 19.4419Z" fill="#3A8F91" transform="matrix(1.01184 0 0 1 550 378.981)"/><path d="M23.4 19.5414C23.4169 19.5379 23.4424 19.5605 23.4838 19.6029 23.4694 19.6045 23.439 19.586 23.4 19.5414Z" fill="#3A8F91" transform="matrix(1.01184 0 0 1 550 378.981)"/><path d="M23.5006 19.6405C23.5169 19.6375 23.5422 19.6603 23.5834 19.7031 23.5695 19.7041 23.5396 19.6851 23.5006 19.6405Z" fill="#3A8F91" transform="matrix(1.01184 0 0 1 550 378.981)"/><path d="M23.5993 19.7405C23.6161 19.7373 23.6413 19.7602 23.6829 19.803 23.6686 19.8041 23.6381 19.7854 23.5993 19.7405Z" fill="#3A8F91" transform="matrix(1.01184 0 0 1 550 378.981)"/><path d="M23.6987 19.8398C23.7152 19.8367 23.7407 19.8595 23.7824 19.9024 23.7682 19.9035 23.738 19.8847 23.6987 19.8398Z" fill="#3A8F91" transform="matrix(1.01184 0 0 1 550 378.981)"/><path d="M23.7985 19.9395C23.8151 19.9364 23.8404 19.9592 23.8819 20.002 23.8679 20.0031 23.8376 19.9842 23.7985 19.9395Z" fill="#3A8F91" transform="matrix(1.01184 0 0 1 550 378.981)"/><path d="M23.8981 20.039C23.9146 20.0359 23.94 20.0589 23.9816 20.1018 23.9675 20.1028 23.9372 20.0839 23.8981 20.039Z" fill="#3A8F91" transform="matrix(1.01184 0 0 1 550 378.981)"/><path d="M23.9975 20.1385C24.014 20.1354 24.0393 20.1583 24.0808 20.201 24.0668 20.2021 24.0367 20.1832 23.9975 20.1385Z" fill="#3A8F91" transform="matrix(1.01184 0 0 1 550 378.981)"/><path d="M24.0966 20.2388C24.1137 20.2352 24.1391 20.2579 24.1807 20.3006 24.1661 20.3021 24.1355 20.2835 24.0966 20.2388Z" fill="#3A8F91" transform="matrix(1.01184 0 0 1 550 378.981)"/><path d="M24.1969 20.3377C24.2133 20.3347 24.2387 20.3576 24.2803 20.4004 24.2663 20.4014 24.2361 20.3826 24.1969 20.3377Z" fill="#3A8F91" transform="matrix(1.01184 0 0 1 550 378.981)"/><path d="M24.2964 20.4372C24.3128 20.4343 24.3381 20.4572 24.3798 20.5 24.3659 20.501 24.3356 20.4821 24.2964 20.4372Z" fill="#3A8F91" transform="matrix(1.01184 0 0 1 550 378.981)"/><path d="M24.3954 20.5371C24.4122 20.5339 24.4377 20.5567 24.4793 20.5997 24.465 20.6009 24.4345 20.5821 24.3954 20.5371Z" fill="#3A8F91" transform="matrix(1.01184 0 0 1 550 378.981)"/><path d="M24.4952 20.6367C24.5118 20.6334 24.5372 20.6564 24.5789 20.6992 24.5647 20.7004 24.5343 20.6816 24.4952 20.6367Z" fill="#3A8F91" transform="matrix(1.01184 0 0 1 550 378.981)"/><path d="M23.1018 19.2422C23.1181 19.2392 23.1435 19.2619 23.185 19.3045 23.171 19.3056 23.1409 19.2868 23.1018 19.2422Z" fill="#3A8F91" transform="matrix(1.01184 0 0 1 550 378.981)"/><path d="M23.002 19.1429C23.0186 19.1397 23.0439 19.1626 23.0854 19.2053 23.0713 19.2064 23.0412 19.1876 23.002 19.1429Z" fill="#3A8F91" transform="matrix(1.01184 0 0 1 550 378.981)"/><path d="M22.9027 19.0433C22.9193 19.0401 22.9446 19.0629 22.9859 19.1058 22.9718 19.1069 22.9415 19.0881 22.9027 19.0433Z" fill="#3A8F91" transform="matrix(1.01184 0 0 1 550 378.981)"/><path d="M22.8009 18.944C22.817 18.9409 22.8431 18.9634 22.8859 19.0058 22.8722 19.0069 22.8415 18.9883 22.8009 18.944Z" fill="#3A8F91" transform="matrix(1.01184 0 0 1 550 378.981)"/><path d="M22.6044 18.7447C22.6211 18.742 22.6463 18.7654 22.6872 18.8095 22.6729 18.8105 22.6429 18.7906 22.6044 18.7447Z" fill="#3A8F91" transform="matrix(1.01184 0 0 1 550 378.981)"/><path d="M22.5045 18.645C22.5212 18.6415 22.5465 18.6641 22.5877 18.7065 22.5734 18.7078 22.5433 18.6894 22.5045 18.645Z" fill="#3A8F91" transform="matrix(1.01184 0 0 1 550 378.981)"/><path d="M22.4066 18.5446C22.4225 18.542 22.4475 18.5648 22.4883 18.6074 22.4747 18.6081 22.4453 18.589 22.4066 18.5446Z" fill="#3A8F91" transform="matrix(1.01184 0 0 1 550 378.981)"/><path d="M22.3067 18.445C22.3225 18.4423 22.3476 18.4648 22.3887 18.5068 22.3752 18.5077 22.3456 18.489 22.3067 18.445Z" fill="#3A8F91" transform="matrix(1.01184 0 0 1 550 378.981)"/><path d="M22.2065 18.346C22.2228 18.3428 22.2481 18.3653 22.2891 18.4076 22.2751 18.4088 22.2452 18.3903 22.2065 18.346Z" fill="#3A8F91" transform="matrix(1.01184 0 0 1 550 378.981)"/><path d="M22.1065 18.2463C22.1228 18.2433 22.148 18.2658 22.1894 18.3081 22.1754 18.3093 22.1454 18.2906 22.1065 18.2463Z" fill="#3A8F91" transform="matrix(1.01184 0 0 1 550 378.981)"/><path d="M22.0076 18.1471C22.0244 18.1437 22.0492 18.1666 22.09 18.2091 22.0759 18.2103 22.0458 18.1917 22.0076 18.1471Z" fill="#3A8F91" transform="matrix(1.01184 0 0 1 550 378.981)"/><path d="M21.9095 18.046C21.9246 18.0439 21.9497 18.0665 21.9907 18.1089 21.9775 18.1093 21.9485 18.09 21.9095 18.046Z" fill="#3A8F91" transform="matrix(1.01184 0 0 1 550 378.981)"/><path d="M21.8073 17.9479C21.824 17.9444 21.8493 17.9667 21.8907 18.0086 21.8766 18.01 21.8463 17.9919 21.8073 17.9479Z" fill="#3A8F91" transform="matrix(1.01184 0 0 1 550 378.981)"/><path d="M21.7078 17.8483C21.7242 17.8451 21.7496 17.8679 21.7911 17.9106 21.777 17.9117 21.7468 17.893 21.7078 17.8483Z" fill="#3A8F91" transform="matrix(1.01184 0 0 1 550 378.981)"/><path d="M21.6094 17.748C21.625 17.7456 21.6501 17.7686 21.6916 17.8112 21.6782 17.8117 21.6485 17.7925 21.6094 17.748Z" fill="#3A8F91" transform="matrix(1.01184 0 0 1 550 378.981)"/><path d="M21.5077 17.6493C21.5229 17.6469 21.5488 17.6694 21.5916 17.7115 21.5786 17.7121 21.5486 17.6931 21.5077 17.6493Z" fill="#3A8F91" transform="matrix(1.01184 0 0 1 550 378.981)"/><text fill="#FAFAFA" font-family="Gugi,Gugi_MSFontService,sans-serif" font-weight="400" font-size="21" transform="matrix(1.0014 0 0 1.00545 587.093 404)">AETHERMARK</text></g></g></g></svg>