<svg width="177" height="22" xmlns="http://www.w3.org/2000/svg" xmlns:xlink="http://www.w3.org/1999/xlink" overflow="hidden"><defs><clipPath id="clip0"><rect x="573" y="371" width="177" height="22"/></clipPath><clipPath id="clip1"><rect x="573" y="372" width="176" height="20"/></clipPath><clipPath id="clip2"><rect x="573" y="372" width="176" height="20"/></clipPath></defs><g clip-path="url(#clip0)" transform="translate(-573 -371)"><g clip-path="url(#clip1)"><g clip-path="url(#clip2)"><path d="M22.3878 18.5838C22.3564 18.5805 22.3321 18.5655 22.2928 18.4979 22.2459 18.4336 22.2211 18.4106 22.1964 18.3875 22.1964 18.3875 22.204 18.3876 22.1883 18.3719 22.1478 18.334 22.1229 18.3119 22.0981 18.2898 22.0981 18.2898 22.1061 18.2897 22.0906 18.2743 22.0505 18.2366 22.026 18.2141 22.0015 18.1918 22.0015 18.1918 22.0086 18.1918 21.9929 18.176 21.9525 18.1383 21.9278 18.1162 21.9032 18.094 21.9032 18.094 21.9106 18.094 21.895 18.0783 21.8547 18.0406 21.8299 18.0185 21.8051 17.9965 21.8051 17.9965 21.8127 17.9964 21.797 17.9806 21.7564 17.9428 21.7316 17.9207 21.7067 17.8985 21.7067 17.8985 21.7149 17.8984 21.6993 17.8831 21.6593 17.8453 21.6349 17.8229 21.6104 17.8006 21.6104 17.8006 21.6176 17.8007 21.6018 17.785 21.5615 17.7471 21.537 17.7248 21.5124 17.7026 21.5124 17.7026 21.5194 17.7024 21.5036 17.6867 21.463 17.649 21.4381 17.6271 21.4132 17.6051 21.4132 17.6051 21.4215 17.605 21.4057 17.5897 21.365 17.552 21.3401 17.5296 21.3152 17.5073 21.3152 17.5073 21.3238 17.5071 21.3079 17.492 21.2673 17.4544 21.2426 17.4318 21.218 17.4093 21.218 17.4093 21.2263 17.4091 21.2097 17.3941 21.1678 17.3569 21.1423 17.3349 21.1167 17.3128 19.7028 15.8754 18.2872 14.4396 16.8762 12.9992 16.6828 12.8017 16.5111 12.5827 16.2901 12.3287 15.7843 12.8268 15.3349 13.2632 14.892 13.7062 11.689 16.9108 8.4892 20.1187 5.28339 23.3205 4.75188 23.8514 4.19504 24.3363 3.41701 24.5087 2.47685 24.7168 1.53598 24.1497 1.49776 23.2091 1.4706 22.5405 1.82035 21.9496 2.22111 21.4146 3.18529 20.1275 4.14958 18.8406 5.11361 17.5535 6.39364 15.8444 7.67385 14.1354 8.95324 12.4259 9.98328 11.0495 10.9978 9.66128 12.0455 8.29859 13.138 6.87779 14.5735 6.06682 16.3931 6.08095 17.4783 6.08939 18.4816 6.49435 19.2108 7.26718 20.2074 8.32343 21.0976 9.48435 21.9876 10.6358 23.2536 12.274 24.4822 13.9413 25.719 15.6018 27.0597 17.4019 28.3986 19.2033 29.7221 21.016 30.0488 21.4634 30.3567 21.936 30.5922 22.4352 30.8058 22.8878 30.8158 23.4038 30.4274 23.7888 29.968 24.2443 29.3884 24.5868 28.7362 24.3994 28.231 24.2542 27.7066 23.985 27.3285 23.626 26.392 22.7372 25.5358 21.7641 24.644 20.8282 24.5354 20.7143 24.4061 20.6202 24.2559 20.4668 24.2007 20.3921 24.176 20.3677 24.1514 20.3433 24.1514 20.3433 24.1606 20.3437 24.1445 20.3286 24.1033 20.2911 24.0783 20.2686 24.0533 20.2461 24.0533 20.2461 24.0623 20.2461 24.0464 20.2309 24.0055 20.1932 23.9806 20.1708 23.9556 20.1483 23.9556 20.1483 23.9646 20.1481 23.9487 20.1331 23.9078 20.0954 23.8829 20.0729 23.8579 20.0503 23.8579 20.0503 23.8669 20.0503 23.8509 20.0352 23.8101 19.9977 23.7852 19.9752 23.7603 19.9526 23.7603 19.9526 23.7689 19.9528 23.7531 19.9374 23.7123 19.8997 23.6873 19.8774 23.6622 19.8551 23.6622 19.8551 23.6707 19.8549 23.6549 19.8395 23.6142 19.8018 23.5893 19.7794 23.5643 19.757 23.5643 19.757 23.5733 19.7569 23.5574 19.7419 23.5166 19.7042 23.4918 19.6816 23.4668 19.6591 23.4668 19.6591 23.4756 19.6591 23.4597 19.6439 23.4189 19.6063 23.394 19.5838 23.369 19.5613 23.369 19.5613 23.3777 19.5613 23.3618 19.5461 23.3209 19.5084 23.2959 19.486 23.2709 19.4634 23.2709 19.4634 23.2799 19.4634 23.2641 19.4483 23.2233 19.4108 23.1985 19.3883 23.1736 19.3658 23.1736 19.3658 23.1822 19.3658 23.1664 19.3503 23.1259 19.3126 23.101 19.2903 23.0761 19.2679 23.0761 19.2679 23.0842 19.2679 23.0684 19.2524 23.0278 19.2146 23.0029 19.1924 22.978 19.1702 22.978 19.1702 22.9864 19.1701 22.9707 19.1548 22.93 19.1171 22.905 19.0947 22.8801 19.0724 22.8801 19.0724 22.8885 19.0723 22.8728 19.0569 22.8322 19.0193 22.8074 18.9969 22.7825 18.9745 22.7825 18.9745 22.7908 18.9744 22.775 18.959 22.7343 18.9213 22.7093 18.899 22.6844 18.8767 22.6844 18.8767 22.6931 18.8766 22.6772 18.8614 22.6364 18.8237 22.6115 18.8013 22.5866 18.7789 22.5866 18.7789 22.5952 18.7788 22.5794 18.7636 22.5388 18.7258 22.5141 18.7034 22.4893 18.681 22.4893 18.681 22.4976 18.6809 22.4812 18.6655 22.4392 18.6281 22.4135 18.6059 22.3878 18.5838Z" fill="#229799" transform="matrix(1.03006 0 0 1 571.75 366.329)"/><path d="M22.7913 18.9998C22.8074 18.9969 22.8322 19.0193 22.8729 19.0612 22.8591 19.0621 22.8296 19.0437 22.7913 18.9998Z" fill="#3A8F91" transform="matrix(1.03006 0 0 1 571.75 366.329)"/><path d="M24.16 20.3693C24.176 20.3677 24.2007 20.3921 24.2409 20.4377 24.2272 20.4376 24.1979 20.4165 24.16 20.3693Z" fill="#3A8F91" transform="matrix(1.03006 0 0 1 571.75 366.329)"/><path d="M22.8885 19.0981C22.905 19.0947 22.93 19.1171 22.9707 19.159 22.9566 19.1603 22.9267 19.142 22.8885 19.0981Z" fill="#3A8F91" transform="matrix(1.03006 0 0 1 571.75 366.329)"/><path d="M22.9863 19.1959C23.0029 19.1924 23.0278 19.2146 23.0685 19.2563 23.0544 19.2578 23.0246 19.2396 22.9863 19.1959Z" fill="#3A8F91" transform="matrix(1.03006 0 0 1 571.75 366.329)"/><path d="M23.085 19.2932C23.101 19.2903 23.1259 19.3126 23.1664 19.3547 23.1528 19.3557 23.1234 19.337 23.085 19.2932Z" fill="#3A8F91" transform="matrix(1.03006 0 0 1 571.75 366.329)"/><path d="M23.182 19.3914C23.1985 19.3883 23.2233 19.4108 23.2641 19.4529 23.2501 19.454 23.2201 19.4356 23.182 19.3914Z" fill="#3A8F91" transform="matrix(1.03006 0 0 1 571.75 366.329)"/><path d="M23.2797 19.489C23.2959 19.486 23.3209 19.5084 23.3619 19.5505 23.3479 19.5515 23.3182 19.5331 23.2797 19.489Z" fill="#3A8F91" transform="matrix(1.03006 0 0 1 571.75 366.329)"/><path d="M23.3777 19.5869C23.394 19.5838 23.4189 19.6063 23.4597 19.6483 23.4458 19.6494 23.4161 19.6308 23.3777 19.5869Z" fill="#3A8F91" transform="matrix(1.03006 0 0 1 571.75 366.329)"/><path d="M23.4756 19.6847C23.4918 19.6816 23.5166 19.7042 23.5575 19.7463 23.5437 19.7473 23.514 19.7287 23.4756 19.6847Z" fill="#3A8F91" transform="matrix(1.03006 0 0 1 571.75 366.329)"/><path d="M23.5731 19.7825C23.5893 19.7794 23.6142 19.8018 23.655 19.8438 23.6413 19.8449 23.6117 19.8263 23.5731 19.7825Z" fill="#3A8F91" transform="matrix(1.03006 0 0 1 571.75 366.329)"/><path d="M23.6705 19.8809C23.6873 19.8774 23.7123 19.8997 23.7531 19.9417 23.7388 19.9431 23.7087 19.9249 23.6705 19.8809Z" fill="#3A8F91" transform="matrix(1.03006 0 0 1 571.75 366.329)"/><path d="M23.7691 19.9781C23.7852 19.9752 23.8101 19.9977 23.851 20.0396 23.8372 20.0406 23.8075 20.0222 23.7691 19.9781Z" fill="#3A8F91" transform="matrix(1.03006 0 0 1 571.75 366.329)"/><path d="M23.8668 20.0758C23.8829 20.0729 23.9078 20.0954 23.9487 20.1375 23.935 20.1385 23.9053 20.1199 23.8668 20.0758Z" fill="#3A8F91" transform="matrix(1.03006 0 0 1 571.75 366.329)"/><path d="M23.9641 20.174C23.9806 20.1708 24.0055 20.1932 24.0464 20.2354 24.0324 20.2366 24.0025 20.2181 23.9641 20.174Z" fill="#3A8F91" transform="matrix(1.03006 0 0 1 571.75 366.329)"/><path d="M24.062 20.2717C24.0783 20.2686 24.1033 20.2911 24.1443 20.3332 24.1304 20.3344 24.1005 20.3159 24.062 20.2717Z" fill="#3A8F91" transform="matrix(1.03006 0 0 1 571.75 366.329)"/><path d="M22.6933 18.9019C22.7093 18.899 22.7343 18.9213 22.775 18.9632 22.7613 18.9643 22.7317 18.9458 22.6933 18.9019Z" fill="#3A8F91" transform="matrix(1.03006 0 0 1 571.75 366.329)"/><path d="M22.5952 18.8044C22.6115 18.8013 22.6364 18.8237 22.6772 18.8657 22.6634 18.8668 22.6338 18.8483 22.5952 18.8044Z" fill="#3A8F91" transform="matrix(1.03006 0 0 1 571.75 366.329)"/><path d="M22.4978 18.7066C22.5141 18.7034 22.5388 18.7258 22.5794 18.7679 22.5656 18.769 22.5359 18.7505 22.4978 18.7066Z" fill="#3A8F91" transform="matrix(1.03006 0 0 1 571.75 366.329)"/><path d="M22.3977 18.609C22.4135 18.6059 22.4392 18.6281 22.4813 18.6697 22.4677 18.6708 22.4376 18.6526 22.3977 18.609Z" fill="#3A8F91" transform="matrix(1.03006 0 0 1 571.75 366.329)"/><path d="M22.2047 18.4132C22.2211 18.4106 22.2459 18.4336 22.286 18.477 22.272 18.4778 22.2425 18.4584 22.2047 18.4132Z" fill="#3A8F91" transform="matrix(1.03006 0 0 1 571.75 366.329)"/><path d="M22.1065 18.3153C22.1229 18.3119 22.1478 18.334 22.1883 18.3757 22.1743 18.377 22.1447 18.3589 22.1065 18.3153Z" fill="#3A8F91" transform="matrix(1.03006 0 0 1 571.75 366.329)"/><path d="M22.0104 18.2167C22.026 18.2141 22.0505 18.2366 22.0906 18.2783 22.0773 18.279 22.0484 18.2603 22.0104 18.2167Z" fill="#3A8F91" transform="matrix(1.03006 0 0 1 571.75 366.329)"/><path d="M21.9123 18.1188C21.9278 18.1162 21.9525 18.1383 21.9929 18.1796 21.9795 18.1805 21.9505 18.1621 21.9123 18.1188Z" fill="#3A8F91" transform="matrix(1.03006 0 0 1 571.75 366.329)"/><path d="M21.8138 18.0216C21.8299 18.0185 21.8547 18.0406 21.895 18.0821 21.8813 18.0833 21.8518 18.0651 21.8138 18.0216Z" fill="#3A8F91" transform="matrix(1.03006 0 0 1 571.75 366.329)"/><path d="M21.7156 17.9237C21.7316 17.9207 21.7564 17.9428 21.797 17.9844 21.7833 17.9856 21.7538 17.9672 21.7156 17.9237Z" fill="#3A8F91" transform="matrix(1.03006 0 0 1 571.75 366.329)"/><path d="M21.6184 17.8262C21.6349 17.8229 21.6593 17.8453 21.6994 17.8871 21.6855 17.8883 21.656 17.87 21.6184 17.8262Z" fill="#3A8F91" transform="matrix(1.03006 0 0 1 571.75 366.329)"/><path d="M21.522 17.7269C21.537 17.7248 21.5615 17.7471 21.6018 17.7886 21.5889 17.789 21.5604 17.7702 21.522 17.7269Z" fill="#3A8F91" transform="matrix(1.03006 0 0 1 571.75 366.329)"/><path d="M21.4217 17.6305C21.4381 17.6271 21.463 17.649 21.5037 17.6902 21.4897 17.6916 21.46 17.6738 21.4217 17.6305Z" fill="#3A8F91" transform="matrix(1.03006 0 0 1 571.75 366.329)"/><path d="M21.3239 17.5327C21.3401 17.5296 21.365 17.552 21.4058 17.5939 21.392 17.595 21.3622 17.5766 21.3239 17.5327Z" fill="#3A8F91" transform="matrix(1.03006 0 0 1 571.75 366.329)"/><path d="M21.2273 17.4342C21.2426 17.4318 21.2673 17.4544 21.308 17.4963 21.2949 17.4968 21.2657 17.4779 21.2273 17.4342Z" fill="#3A8F91" transform="matrix(1.03006 0 0 1 571.75 366.329)"/><path d="M21.1274 17.3372C21.1423 17.3349 21.1678 17.3569 21.2098 17.3983 21.197 17.3989 21.1676 17.3802 21.1274 17.3372Z" fill="#3A8F91" transform="matrix(1.03006 0 0 1 571.75 366.329)"/><text font-family="Gugi,Gugi_MSFontService,sans-serif" font-weight="400" font-size="21" transform="matrix(1.00141 0 0 0.987671 608.843 391)">AETHERMARK</text></g></g></g></svg>